<svg width="1280" height="720" viewBox="0 0 1280 720" fill="none" xmlns="http://www.w3.org/2000/svg" role="img" aria-label="LivePPT demo preview">
  <defs>
    <linearGradient id="bg" x1="80" y1="40" x2="1240" y2="700" gradientUnits="userSpaceOnUse">
      <stop stop-color="#0E1428"/>
      <stop offset="1" stop-color="#1A2342"/>
    </linearGradient>
    <linearGradient id="accent" x1="140" y1="130" x2="980" y2="520" gradientUnits="userSpaceOnUse">
      <stop stop-color="#3DE2C2"/>
      <stop offset="1" stop-color="#6FA8FF"/>
    </linearGradient>
    <linearGradient id="cta" x1="0" y1="0" x2="1" y2="1">
      <stop stop-color="#36D7B7"/>
      <stop offset="1" stop-color="#5F9BFF"/>
    </linearGradient>
    <filter id="soft" x="0" y="0" width="1280" height="720" filterUnits="userSpaceOnUse" color-interpolation-filters="sRGB">
      <feGaussianBlur stdDeviation="0.8"/>
    </filter>
  </defs>

  <rect width="1280" height="720" fill="url(#bg)"/>
  <circle cx="1060" cy="92" r="186" fill="#1F305E" fill-opacity="0.55"/>
  <circle cx="232" cy="668" r="230" fill="#16345A" fill-opacity="0.42"/>

  <rect x="72" y="52" width="1136" height="616" rx="26" fill="#0F1934" stroke="#2D467A" stroke-width="2"/>

  <rect x="108" y="96" width="236" height="528" rx="18" fill="#121F3F" stroke="#2A4478"/>
  <text x="136" y="146" fill="#7ED6FF" font-family="SFMono-Regular, Menlo, Consolas, monospace" font-size="24" font-weight="700">SCENES</text>
  <rect x="136" y="178" width="180" height="34" rx="8" fill="#1C315B"/>
  <rect x="136" y="230" width="180" height="34" rx="8" fill="#1A2A4B"/>
  <rect x="136" y="282" width="180" height="34" rx="8" fill="#1A2A4B"/>
  <rect x="136" y="334" width="180" height="34" rx="8" fill="#1A2A4B"/>

  <rect x="372" y="96" width="800" height="528" rx="18" fill="#101B36" stroke="#274373"/>
  <text x="412" y="170" fill="#E8F3FF" font-family="Avenir Next, Segoe UI, Arial, sans-serif" font-size="54" font-weight="700">LivePPT</text>
  <text x="412" y="216" fill="#9FC3FF" font-family="Avenir Next, Segoe UI, Arial, sans-serif" font-size="24">Turn README into a clickable launch deck</text>

  <rect x="412" y="262" width="382" height="172" rx="16" fill="#15254A"/>
  <rect x="426" y="276" width="354" height="16" rx="8" fill="#2C4E87"/>
  <rect x="426" y="308" width="330" height="12" rx="6" fill="#253F6E"/>
  <rect x="426" y="334" width="306" height="12" rx="6" fill="#253F6E"/>
  <rect x="426" y="360" width="344" height="12" rx="6" fill="#253F6E"/>
  <rect x="426" y="386" width="268" height="12" rx="6" fill="#253F6E"/>

  <rect x="822" y="262" width="308" height="172" rx="16" fill="#142646"/>
  <text x="846" y="304" fill="#7ED6FF" font-family="SFMono-Regular, Menlo, Consolas, monospace" font-size="18">$ make validate</text>
  <text x="846" y="338" fill="#9FD7BE" font-family="SFMono-Regular, Menlo, Consolas, monospace" font-size="15">Validation passed</text>
  <text x="846" y="366" fill="#93B4E8" font-family="SFMono-Regular, Menlo, Consolas, monospace" font-size="15">Checklist generated</text>
  <text x="846" y="394" fill="#93B4E8" font-family="SFMono-Regular, Menlo, Consolas, monospace" font-size="15">Theme generated</text>

  <rect x="412" y="462" width="224" height="56" rx="14" fill="url(#cta)" filter="url(#soft)"/>
  <text x="456" y="497" fill="#0D1731" font-family="Avenir Next, Segoe UI, Arial, sans-serif" font-size="22" font-weight="700">Open Demo</text>

  <rect x="654" y="462" width="262" height="56" rx="14" fill="#17294F" stroke="#325B99"/>
  <text x="692" y="497" fill="#B9D2FF" font-family="Avenir Next, Segoe UI, Arial, sans-serif" font-size="22" font-weight="700">Switch Theme</text>

  <rect x="938" y="462" width="192" height="56" rx="14" fill="#17294F" stroke="#325B99"/>
  <text x="992" y="497" fill="#B9D2FF" font-family="Avenir Next, Segoe UI, Arial, sans-serif" font-size="22" font-weight="700">Star</text>

  <path d="M108 632H1172" stroke="url(#accent)" stroke-width="2" stroke-linecap="round"/>
</svg>
